<mxfile host="app.diagrams.net" modified="2021-01-05T11:12:20.401Z" agent="5.0 (Macintosh; Intel Mac OS X 10_15_7) AppleWebKit/537.36 (KHTML, like Gecko) Chrome/87.0.4280.88 Safari/537.36" etag="LpdawH_TiGCGlgaewuB7" version="14.1.8" type="github">
  <diagram id="4wILREtH9ncnzC2ThN3B" name="Page-1">
    <mxGraphModel dx="1658" dy="643" grid="1" gridSize="10" guides="1" tooltips="1" connect="1" arrows="1" fold="1" page="1" pageScale="1" pageWidth="850" pageHeight="1100" math="0" shadow="0">
      <root>
        <mxCell id="0" />
        <mxCell id="1" parent="0" />
        <mxCell id="I5m97MwC8dZGPgCnjR62-1" value="Text" style="text;html=1;align=center;verticalAlign=middle;resizable=0;points=[];autosize=1;" parent="1" vertex="1">
          <mxGeometry x="719" y="1691" width="40" height="20" as="geometry" />
        </mxCell>
        <mxCell id="I5m97MwC8dZGPgCnjR62-2" value="" style="rhombus;whiteSpace=wrap;html=1;" parent="1" vertex="1">
          <mxGeometry x="360" y="1740" width="80" height="80" as="geometry" />
        </mxCell>
        <mxCell id="I5m97MwC8dZGPgCnjR62-3" value="" style="shape=trapezoid;perimeter=trapezoidPerimeter;whiteSpace=wrap;html=1;" parent="1" vertex="1">
          <mxGeometry x="500" y="1750" width="120" height="60" as="geometry" />
        </mxCell>
        <mxCell id="XASwXC1lrXOaXmksnacw-1" value="Repository Background Actions in SCLM App" style="swimlane;html=1;childLayout=stackLayout;startSize=20;rounded=0;shadow=0;comic=0;labelBackgroundColor=none;strokeWidth=1;fontFamily=Verdana;fontSize=12;align=center;" parent="1" vertex="1">
          <mxGeometry x="40" y="20" width="1100" height="700" as="geometry">
            <mxRectangle x="40" y="20" width="60" height="20" as="alternateBounds" />
          </mxGeometry>
        </mxCell>
        <mxCell id="XASwXC1lrXOaXmksnacw-2" value="Instance Dashboard" style="swimlane;html=1;startSize=39;" parent="XASwXC1lrXOaXmksnacw-1" vertex="1">
          <mxGeometry y="20" width="250" height="680" as="geometry" />
        </mxCell>
        <mxCell id="XASwXC1lrXOaXmksnacw-3" value="" style="edgeStyle=orthogonalEdgeStyle;rounded=0;orthogonalLoop=1;jettySize=auto;html=1;entryX=0.5;entryY=0;entryDx=0;entryDy=0;" parent="XASwXC1lrXOaXmksnacw-2" source="XASwXC1lrXOaXmksnacw-5" target="XASwXC1lrXOaXmksnacw-6" edge="1">
          <mxGeometry relative="1" as="geometry">
            <mxPoint x="120" y="180" as="targetPoint" />
          </mxGeometry>
        </mxCell>
        <mxCell id="XASwXC1lrXOaXmksnacw-5" value="Administrator" style="shape=umlActor;verticalLabelPosition=bottom;labelBackgroundColor=#ffffff;verticalAlign=top;html=1;outlineConnect=0;" parent="XASwXC1lrXOaXmksnacw-2" vertex="1">
          <mxGeometry x="105" y="70" width="30" height="60" as="geometry" />
        </mxCell>
        <mxCell id="XASwXC1lrXOaXmksnacw-6" value="SCLM App" style="rounded=1;whiteSpace=wrap;html=1;shadow=0;comic=0;labelBackgroundColor=none;strokeWidth=1;fontFamily=Verdana;fontSize=12;align=center;arcSize=50;" parent="XASwXC1lrXOaXmksnacw-2" vertex="1">
          <mxGeometry x="45" y="200" width="150" height="30" as="geometry" />
        </mxCell>
        <mxCell id="XASwXC1lrXOaXmksnacw-7" value="SCLM Action" style="swimlane;html=1;startSize=39;" parent="XASwXC1lrXOaXmksnacw-1" vertex="1">
          <mxGeometry x="250" y="20" width="250" height="680" as="geometry" />
        </mxCell>
        <mxCell id="XASwXC1lrXOaXmksnacw-8" value="Commit object list" style="rounded=1;whiteSpace=wrap;html=1;shadow=0;comic=0;labelBackgroundColor=none;strokeWidth=1;fontFamily=Verdana;fontSize=12;align=center;arcSize=50;" parent="XASwXC1lrXOaXmksnacw-7" vertex="1">
          <mxGeometry x="70" y="350" width="140" height="50" as="geometry" />
        </mxCell>
        <mxCell id="XASwXC1lrXOaXmksnacw-9" value="Clone SC" style="rounded=1;whiteSpace=wrap;html=1;shadow=0;comic=0;labelBackgroundColor=none;strokeWidth=1;fontFamily=Verdana;fontSize=12;align=center;arcSize=50;" parent="XASwXC1lrXOaXmksnacw-7" vertex="1">
          <mxGeometry x="70" y="192.5" width="140" height="45" as="geometry" />
        </mxCell>
        <mxCell id="XASwXC1lrXOaXmksnacw-10" value="List commits" style="rounded=1;whiteSpace=wrap;html=1;shadow=0;comic=0;labelBackgroundColor=none;strokeWidth=1;fontFamily=Verdana;fontSize=12;align=center;arcSize=50;" parent="XASwXC1lrXOaXmksnacw-7" vertex="1">
          <mxGeometry x="70" y="270" width="140" height="50" as="geometry" />
        </mxCell>
        <mxCell id="XASwXC1lrXOaXmksnacw-11" value="Switch branch" style="rounded=1;whiteSpace=wrap;html=1;shadow=0;comic=0;labelBackgroundColor=none;strokeWidth=1;fontFamily=Verdana;fontSize=12;align=center;arcSize=50;" parent="XASwXC1lrXOaXmksnacw-7" vertex="1">
          <mxGeometry x="65" y="430" width="140" height="50" as="geometry" />
        </mxCell>
        <mxCell id="XASwXC1lrXOaXmksnacw-12" value="Pull SC" style="rounded=1;whiteSpace=wrap;html=1;shadow=0;comic=0;labelBackgroundColor=none;strokeWidth=1;fontFamily=Verdana;fontSize=12;align=center;arcSize=50;" parent="XASwXC1lrXOaXmksnacw-7" vertex="1">
          <mxGeometry x="65" y="510" width="140" height="50" as="geometry" />
        </mxCell>
        <mxCell id="XASwXC1lrXOaXmksnacw-13" value="Delete SC" style="rounded=1;whiteSpace=wrap;html=1;shadow=0;comic=0;labelBackgroundColor=none;strokeWidth=1;fontFamily=Verdana;fontSize=12;align=center;arcSize=50;" parent="XASwXC1lrXOaXmksnacw-7" vertex="1">
          <mxGeometry x="65" y="590" width="140" height="50" as="geometry" />
        </mxCell>
        <mxCell id="XASwXC1lrXOaXmksnacw-14" value="Class Instance" style="swimlane;html=1;startSize=39;" parent="XASwXC1lrXOaXmksnacw-1" vertex="1">
          <mxGeometry x="500" y="20" width="290" height="680" as="geometry" />
        </mxCell>
        <mxCell id="XASwXC1lrXOaXmksnacw-15" style="edgeStyle=orthogonalEdgeStyle;rounded=0;orthogonalLoop=1;jettySize=auto;html=1;exitX=0.75;exitY=1;exitDx=0;exitDy=0;entryX=0.752;entryY=0.85;entryDx=0;entryDy=0;entryPerimeter=0;" parent="XASwXC1lrXOaXmksnacw-14" source="XASwXC1lrXOaXmksnacw-19" target="XASwXC1lrXOaXmksnacw-19" edge="1">
          <mxGeometry relative="1" as="geometry" />
        </mxCell>
        <mxCell id="XASwXC1lrXOaXmksnacw-16" value="CL_A4C_A2G_BGA_IMPORT_SC" style="rounded=0;whiteSpace=wrap;html=1;shadow=0;comic=0;labelBackgroundColor=none;strokeWidth=1;fontFamily=Verdana;fontSize=12;align=center;arcSize=50;" parent="XASwXC1lrXOaXmksnacw-14" vertex="1">
          <mxGeometry x="20" y="510" width="260" height="50" as="geometry" />
        </mxCell>
        <mxCell id="XASwXC1lrXOaXmksnacw-17" value="CL_A4C_A2G_BGA_GET_COMMITS" style="rounded=0;whiteSpace=wrap;html=1;shadow=0;comic=0;labelBackgroundColor=none;strokeWidth=1;fontFamily=Verdana;fontSize=12;align=center;arcSize=50;" parent="XASwXC1lrXOaXmksnacw-14" vertex="1">
          <mxGeometry x="20" y="270" width="260" height="50" as="geometry" />
        </mxCell>
        <mxCell id="XASwXC1lrXOaXmksnacw-18" value="CL_A4C_A2G_BGA_COMPARE_COMMITS" style="rounded=0;whiteSpace=wrap;html=1;shadow=0;comic=0;labelBackgroundColor=none;strokeWidth=1;fontFamily=Verdana;fontSize=12;align=center;arcSize=50;" parent="XASwXC1lrXOaXmksnacw-14" vertex="1">
          <mxGeometry x="20" y="350" width="260" height="50" as="geometry" />
        </mxCell>
        <mxCell id="XASwXC1lrXOaXmksnacw-19" value="CL_A4C_A2G_BGA_CLONE" style="rounded=0;whiteSpace=wrap;html=1;shadow=0;comic=0;labelBackgroundColor=none;strokeWidth=1;fontFamily=Verdana;fontSize=12;align=center;arcSize=50;" parent="XASwXC1lrXOaXmksnacw-14" vertex="1">
          <mxGeometry x="20" y="190" width="260" height="50" as="geometry" />
        </mxCell>
        <mxCell id="XASwXC1lrXOaXmksnacw-20" value="CL_A4C_A2G_BGA_SWITCH_BRANCH" style="rounded=0;whiteSpace=wrap;html=1;shadow=0;comic=0;labelBackgroundColor=none;strokeWidth=1;fontFamily=Verdana;fontSize=12;align=center;arcSize=50;" parent="XASwXC1lrXOaXmksnacw-14" vertex="1">
          <mxGeometry x="20" y="430" width="260" height="50" as="geometry" />
        </mxCell>
        <mxCell id="XASwXC1lrXOaXmksnacw-21" value="CL_A4C_A2G_BGA_DELETE_SC" style="rounded=0;whiteSpace=wrap;html=1;shadow=0;comic=0;labelBackgroundColor=none;strokeWidth=1;fontFamily=Verdana;fontSize=12;align=center;arcSize=50;" parent="XASwXC1lrXOaXmksnacw-14" vertex="1">
          <mxGeometry x="20" y="590" width="260" height="50" as="geometry" />
        </mxCell>
        <mxCell id="XASwXC1lrXOaXmksnacw-22" style="edgeStyle=none;rounded=0;html=1;labelBackgroundColor=none;startArrow=none;startFill=0;startSize=5;endArrow=classicThin;endFill=1;endSize=5;jettySize=auto;orthogonalLoop=1;strokeWidth=1;fontFamily=Verdana;fontSize=12;entryX=0;entryY=0.5;entryDx=0;entryDy=0;" parent="XASwXC1lrXOaXmksnacw-1" source="XASwXC1lrXOaXmksnacw-6" target="XASwXC1lrXOaXmksnacw-9" edge="1">
          <mxGeometry relative="1" as="geometry">
            <mxPoint x="300" y="220" as="targetPoint" />
            <Array as="points" />
          </mxGeometry>
        </mxCell>
        <mxCell id="XASwXC1lrXOaXmksnacw-39" style="edgeStyle=orthogonalEdgeStyle;rounded=0;orthogonalLoop=1;jettySize=auto;html=1;exitX=1;exitY=0.5;exitDx=0;exitDy=0;entryX=0;entryY=0.5;entryDx=0;entryDy=0;" parent="XASwXC1lrXOaXmksnacw-1" source="XASwXC1lrXOaXmksnacw-9" target="XASwXC1lrXOaXmksnacw-19" edge="1">
          <mxGeometry relative="1" as="geometry" />
        </mxCell>
        <mxCell id="XASwXC1lrXOaXmksnacw-40" style="edgeStyle=orthogonalEdgeStyle;rounded=0;orthogonalLoop=1;jettySize=auto;html=1;exitX=1;exitY=0.5;exitDx=0;exitDy=0;entryX=0;entryY=0.5;entryDx=0;entryDy=0;" parent="XASwXC1lrXOaXmksnacw-1" source="XASwXC1lrXOaXmksnacw-10" target="XASwXC1lrXOaXmksnacw-17" edge="1">
          <mxGeometry relative="1" as="geometry" />
        </mxCell>
        <mxCell id="XASwXC1lrXOaXmksnacw-41" style="edgeStyle=orthogonalEdgeStyle;rounded=0;orthogonalLoop=1;jettySize=auto;html=1;exitX=1;exitY=0.5;exitDx=0;exitDy=0;entryX=0;entryY=0.5;entryDx=0;entryDy=0;" parent="XASwXC1lrXOaXmksnacw-1" source="XASwXC1lrXOaXmksnacw-8" target="XASwXC1lrXOaXmksnacw-18" edge="1">
          <mxGeometry relative="1" as="geometry" />
        </mxCell>
        <mxCell id="XASwXC1lrXOaXmksnacw-42" style="edgeStyle=orthogonalEdgeStyle;rounded=0;orthogonalLoop=1;jettySize=auto;html=1;exitX=1;exitY=0.5;exitDx=0;exitDy=0;entryX=0;entryY=0.5;entryDx=0;entryDy=0;" parent="XASwXC1lrXOaXmksnacw-1" source="XASwXC1lrXOaXmksnacw-11" target="XASwXC1lrXOaXmksnacw-20" edge="1">
          <mxGeometry relative="1" as="geometry" />
        </mxCell>
        <mxCell id="XASwXC1lrXOaXmksnacw-43" style="edgeStyle=orthogonalEdgeStyle;rounded=0;orthogonalLoop=1;jettySize=auto;html=1;exitX=1;exitY=0.5;exitDx=0;exitDy=0;" parent="XASwXC1lrXOaXmksnacw-1" source="XASwXC1lrXOaXmksnacw-12" target="XASwXC1lrXOaXmksnacw-16" edge="1">
          <mxGeometry relative="1" as="geometry" />
        </mxCell>
        <mxCell id="XASwXC1lrXOaXmksnacw-44" style="edgeStyle=orthogonalEdgeStyle;rounded=0;orthogonalLoop=1;jettySize=auto;html=1;exitX=1;exitY=0.5;exitDx=0;exitDy=0;entryX=0;entryY=0.5;entryDx=0;entryDy=0;" parent="XASwXC1lrXOaXmksnacw-1" source="XASwXC1lrXOaXmksnacw-13" target="XASwXC1lrXOaXmksnacw-21" edge="1">
          <mxGeometry relative="1" as="geometry" />
        </mxCell>
        <mxCell id="XASwXC1lrXOaXmksnacw-23" value="Shedule Job" style="swimlane;html=1;startSize=39;" parent="XASwXC1lrXOaXmksnacw-1" vertex="1">
          <mxGeometry x="790" y="20" width="310" height="680" as="geometry" />
        </mxCell>
        <mxCell id="XASwXC1lrXOaXmksnacw-68" value="" style="rounded=0;whiteSpace=wrap;html=1;" parent="XASwXC1lrXOaXmksnacw-23" vertex="1">
          <mxGeometry x="40" y="188.5" width="240" height="451.5" as="geometry" />
        </mxCell>
        <mxCell id="XASwXC1lrXOaXmksnacw-48" value="Create entry in log table" style="rounded=1;whiteSpace=wrap;html=1;shadow=0;comic=0;labelBackgroundColor=none;strokeWidth=1;fontFamily=Verdana;fontSize=12;align=center;arcSize=50;" parent="XASwXC1lrXOaXmksnacw-23" vertex="1">
          <mxGeometry x="67.5" y="210" width="185" height="60" as="geometry" />
        </mxCell>
        <mxCell id="UkTTOMlx8ckA-x1YVDBG-16" style="edgeStyle=orthogonalEdgeStyle;rounded=0;orthogonalLoop=1;jettySize=auto;html=1;exitX=0.5;exitY=1;exitDx=0;exitDy=0;entryX=0.5;entryY=0;entryDx=0;entryDy=0;" edge="1" parent="XASwXC1lrXOaXmksnacw-23" source="UkTTOMlx8ckA-x1YVDBG-11" target="UkTTOMlx8ckA-x1YVDBG-12">
          <mxGeometry relative="1" as="geometry" />
        </mxCell>
        <mxCell id="UkTTOMlx8ckA-x1YVDBG-11" value="Create action" style="rounded=1;whiteSpace=wrap;html=1;shadow=0;comic=0;labelBackgroundColor=none;strokeWidth=1;fontFamily=Verdana;fontSize=12;align=center;arcSize=50;" vertex="1" parent="XASwXC1lrXOaXmksnacw-23">
          <mxGeometry x="67.5" y="330" width="185" height="60" as="geometry" />
        </mxCell>
        <mxCell id="UkTTOMlx8ckA-x1YVDBG-17" style="edgeStyle=orthogonalEdgeStyle;rounded=0;orthogonalLoop=1;jettySize=auto;html=1;exitX=0.5;exitY=1;exitDx=0;exitDy=0;entryX=0.5;entryY=0;entryDx=0;entryDy=0;" edge="1" parent="XASwXC1lrXOaXmksnacw-23" source="UkTTOMlx8ckA-x1YVDBG-12" target="UkTTOMlx8ckA-x1YVDBG-13">
          <mxGeometry relative="1" as="geometry" />
        </mxCell>
        <mxCell id="UkTTOMlx8ckA-x1YVDBG-12" value="Start job" style="rounded=1;whiteSpace=wrap;html=1;shadow=0;comic=0;labelBackgroundColor=none;strokeWidth=1;fontFamily=Verdana;fontSize=12;align=center;arcSize=50;" vertex="1" parent="XASwXC1lrXOaXmksnacw-23">
          <mxGeometry x="67.5" y="420" width="185" height="60" as="geometry" />
        </mxCell>
        <mxCell id="UkTTOMlx8ckA-x1YVDBG-13" value="Update entry in log table" style="rounded=1;whiteSpace=wrap;html=1;shadow=0;comic=0;labelBackgroundColor=none;strokeWidth=1;fontFamily=Verdana;fontSize=12;align=center;arcSize=50;" vertex="1" parent="XASwXC1lrXOaXmksnacw-23">
          <mxGeometry x="67.5" y="510" width="185" height="60" as="geometry" />
        </mxCell>
        <mxCell id="UkTTOMlx8ckA-x1YVDBG-2" style="edgeStyle=orthogonalEdgeStyle;rounded=0;orthogonalLoop=1;jettySize=auto;html=1;exitX=1;exitY=0.5;exitDx=0;exitDy=0;entryX=0;entryY=0.059;entryDx=0;entryDy=0;entryPerimeter=0;" edge="1" parent="XASwXC1lrXOaXmksnacw-1" source="XASwXC1lrXOaXmksnacw-19" target="XASwXC1lrXOaXmksnacw-68">
          <mxGeometry relative="1" as="geometry" />
        </mxCell>
        <mxCell id="UkTTOMlx8ckA-x1YVDBG-3" style="edgeStyle=orthogonalEdgeStyle;rounded=0;orthogonalLoop=1;jettySize=auto;html=1;exitX=1;exitY=0.5;exitDx=0;exitDy=0;entryX=-0.011;entryY=0.236;entryDx=0;entryDy=0;entryPerimeter=0;" edge="1" parent="XASwXC1lrXOaXmksnacw-1" source="XASwXC1lrXOaXmksnacw-17" target="XASwXC1lrXOaXmksnacw-68">
          <mxGeometry relative="1" as="geometry">
            <mxPoint x="850" y="315" as="targetPoint" />
          </mxGeometry>
        </mxCell>
        <mxCell id="UkTTOMlx8ckA-x1YVDBG-4" style="edgeStyle=orthogonalEdgeStyle;rounded=0;orthogonalLoop=1;jettySize=auto;html=1;exitX=1;exitY=0.5;exitDx=0;exitDy=0;entryX=-0.005;entryY=0.411;entryDx=0;entryDy=0;entryPerimeter=0;" edge="1" parent="XASwXC1lrXOaXmksnacw-1" source="XASwXC1lrXOaXmksnacw-18" target="XASwXC1lrXOaXmksnacw-68">
          <mxGeometry relative="1" as="geometry" />
        </mxCell>
        <mxCell id="UkTTOMlx8ckA-x1YVDBG-5" style="edgeStyle=orthogonalEdgeStyle;rounded=0;orthogonalLoop=1;jettySize=auto;html=1;exitX=1;exitY=0.5;exitDx=0;exitDy=0;entryX=0;entryY=0.59;entryDx=0;entryDy=0;entryPerimeter=0;" edge="1" parent="XASwXC1lrXOaXmksnacw-1" source="XASwXC1lrXOaXmksnacw-20" target="XASwXC1lrXOaXmksnacw-68">
          <mxGeometry relative="1" as="geometry" />
        </mxCell>
        <mxCell id="UkTTOMlx8ckA-x1YVDBG-6" style="edgeStyle=orthogonalEdgeStyle;rounded=0;orthogonalLoop=1;jettySize=auto;html=1;exitX=1;exitY=0.5;exitDx=0;exitDy=0;entryX=0;entryY=0.767;entryDx=0;entryDy=0;entryPerimeter=0;" edge="1" parent="XASwXC1lrXOaXmksnacw-1" source="XASwXC1lrXOaXmksnacw-16" target="XASwXC1lrXOaXmksnacw-68">
          <mxGeometry relative="1" as="geometry" />
        </mxCell>
        <mxCell id="UkTTOMlx8ckA-x1YVDBG-8" style="edgeStyle=orthogonalEdgeStyle;rounded=0;orthogonalLoop=1;jettySize=auto;html=1;exitX=1;exitY=0.5;exitDx=0;exitDy=0;entryX=-0.005;entryY=0.945;entryDx=0;entryDy=0;entryPerimeter=0;" edge="1" parent="XASwXC1lrXOaXmksnacw-1" source="XASwXC1lrXOaXmksnacw-21" target="XASwXC1lrXOaXmksnacw-68">
          <mxGeometry relative="1" as="geometry" />
        </mxCell>
      </root>
    </mxGraphModel>
  </diagram>
</mxfile>
